#!OML:ASF G:\JayActor3\Patient Classification 1\Patient 1\Session 5\male.ASF
:FULLY-SPECIFIED
:DEGREES
708
root 13.7991 17.5063 -7.02169 -596.86 -93.8007 613.6
lowerback 23.1543 -2.48566 2.83575
upperback 6.55918 -3.0952 -1.0419
thorax -5.88411 -1.69257 -1.87394
lowerneck 5.78444 1.39759 3.749
upperneck -17.3926 1.92458 -1.19254
head -6.17073 0.663834 -1.12215
rclavicle 1.88348e-014 5.11871e-015
rhumerus -29.8313 -2.99242 -89.4763
rradius 33.5137
rwrist -0.226198
rhand -21.7373 -8.63678
rfingers 7.12502
rthumb 4.66245 -38.5655
lclavicle 1.88348e-014 5.11871e-015
lhumerus -31.7875 -3.64363 86.2426
lradius 31.6587
lwrist 21.8599
lhand -19.9617 9.31019
lfingers 7.12502
lthumb 6.37683 39.1942
rfemur -47.9688 2.75225 15.7072
rtibia 35.7374
rfoot 8.94409 -10.0643
rtoes 13.9592
lfemur -19.8622 5.56368 -24.163
ltibia 41.8017
lfoot 14.6707 -8.07245
ltoes -5.07186
709
root 13.9217 17.4729 -7.00531 -596.556 -94.0365 612.884
lowerback 23.0854 -2.53432 2.67949
upperback 6.62875 -3.20426 -1.10232
thorax -5.77563 -1.74465 -1.82392
lowerneck 5.8299 1.40091 3.7532
upperneck -17.3918 1.92999 -1.20629
head -6.17803 0.667767 -1.12803
rclavicle -1.57537e-014 -4.34841e-015
rhumerus -29.9144 -3.04742 -89.543
rradius 33.5303
rwrist -0.200348
rhand -21.6677 -8.6037
rfingers 7.12502
rthumb 4.72968 -38.5309
lclavicle -1.57537e-014 -4.34841e-015
lhumerus -31.7619 -3.60263 86.2558
lradius 31.6359
lwrist 21.8272
lhand -19.9905 9.29689
lfingers 7.12502
lthumb 6.34902 39.1817
rfemur -48.0076 2.80905 15.3126
rtibia 35.8207
rfoot 8.9376 -10.3488
rtoes 14.2386
lfemur -18.896 5.5386 -24.5099
ltibia 40.4736
lfoot 13.9751 -8.16307
ltoes -6.61329
710
root 14.048 17.4416 -6.98837 -596.309 -94.2842 612.23
lowerback 23.0253 -2.57789 2.50672
upperback 6.70034 -3.31003 -1.16189
thorax -5.66807 -1.79547 -1.76455
lowerneck 5.86575 1.4018 3.75193
upperneck -17.3986 1.93183 -1.21222
head -6.18629 0.669356 -1.13025
rclavicle -4.00054e-014 -2.57178e-014
rhumerus -29.982 -3.11317 -89.593
rradius 33.5453
rwrist -0.191822
rhand -21.6122 -8.56614
rfingers 7.12502
rthumb 4.78321 -38.4921
lclavicle -4.00054e-014 -2.57178e-014
lhumerus -31.7194 -3.57376 86.2832
lradius 31.6185
lwrist 21.8307
lhand -20.0249 9.26805
lfingers 7.12502
lthumb 6.31579 39.1539
rfemur -48.0418 2.8717 14.8938
rtibia 35.8531
rfoot 8.96642 -10.7139
rtoes 14.6328
lfemur -18.0371 5.52641 -24.8824
ltibia 39.3386
lfoot 13.1922 -8.2793
ltoes -8.72985
711
root 14.1785 17.4128 -6.97078 -596.057 -94.5351 611.584
lowerback 22.9752 -2.61794 2.32587
upperback 6.77028 -3.41217 -1.21812
thorax -5.56621 -1.84487 -1.69783
lowerneck 5.89394 1.40021 3.74735
upperneck -17.4131 1.93017 -1.21166
head -6.19587 0.668623 -1.12959
rclavicle 1.19271e-014 3.85145e-015
rhumerus -30.0389 -3.19962 -89.6261
rradius 33.5626
rwrist -0.198566
rhand -21.578 -8.53266
rfingers 7.12502
rthumb 4.81625 -38.4579
lclavicle 1.19271e-014 3.85145e-015
lhumerus -31.6623 -3.55985 86.3246
lradius 31.6071
lwrist 21.8701
lhand -20.0687 9.24481
lfingers 7.12502
lthumb 6.27348 39.1319
rfemur -48.0776 2.92799 14.4656
rtibia 35.8234
rfoot 9.05731 -11.1564
rtoes 15.1124
lfemur -17.3164 5.56663 -25.2792
ltibia 38.4184
lfoot 12.3598 -8.33951
ltoes -11.2627
712
root 14.3135 17.3866 -6.95256 -595.865 -94.778 611.019
lowerback 22.934 -2.65236 2.14074
upperback 6.83599 -3.50702 -1.27097
thorax -5.47229 -1.89105 -1.62687
lowerneck 5.92997 1.39319 3.74701
upperneck -17.4483 1.92178 -1.20917
head -6.21355 0.663619 -1.12878
rclavicle 3.29486e-014 -1.14301e-015
rhumerus -30.0857 -3.29639 -89.6485
rradius 33.5795
rwrist -0.224822
rhand -21.571 -8.50455
rfingers 7.12502
rthumb 4.82299 -38.4297
lclavicle 3.29486e-014 -1.14301e-015
lhumerus -31.5901 -3.55829 86.3751
lradius 31.5969
lwrist 21.9347
lhand -20.1133 9.22668
lfingers 7.12502
lthumb 6.23047 39.1151
rfemur -48.1224 2.98438 14.034
rtibia 35.7208
rfoot 9.2222 -11.6947
rtoes 15.7202
lfemur -16.749 5.69019 -25.6951
ltibia 37.698
lfoot 11.4975 -8.28677
ltoes -13.7574
713
root 14.4528 17.3633 -6.9337 -595.779 -94.9949 610.583
lowerback 22.9064 -2.67987 1.95572
upperback 6.89628 -3.59169 -1.31652
thorax -5.38982 -1.93263 -1.55039
lowerneck 5.98843 1.38274 3.75666
upperneck -17.5126 1.90962 -1.21174
head -6.24434 0.655873 -1.13141
rclavicle 2.02512e-014 -2.7159e-014
rhumerus -30.1201 -3.38283 -89.6654
rradius 33.5877
rwrist -0.262534
rhand -21.5969 -8.47871
rfingers 7.12502
rthumb 4.79798 -38.4044
lclavicle 2.02512e-014 -2.7159e-014
lhumerus -31.5121 -3.56564 86.434
lradius 31.5943
lwrist 22.018
lhand -20.1709 9.22283
lfingers 7.12502
lthumb 6.17487 39.1128
rfemur -48.1753 3.04949 13.6122
rtibia 35.5342
rfoot 9.47883 -12.334
rtoes 16.4435
lfemur -16.3288 5.91856 -26.1165
ltibia 37.1349
lfoot 10.6302 -8.1444
ltoes -15.9674
714
root 14.596 17.3435 -6.914 -595.849 -95.1755 610.33
lowerback 22.891 -2.69868 1.77601
upperback 6.95123 -3.66283 -1.35388
thorax -5.31803 -1.96797 -1.47133
lowerneck 6.06962 1.36821 3.77834
upperneck -17.6061 1.89263 -1.22224
head -6.28827 0.644951 -1.13865
rclavicle 3.13086e-015 1.08089e-014
rhumerus -30.1412 -3.45816 -89.6784
rradius 33.589
rwrist -0.295968
rhand -21.652 -8.45244
rfingers 7.12502
rthumb 4.74482 -38.3793
lclavicle 3.13086e-015 1.08089e-014
lhumerus -31.4245 -3.57402 86.4989
lradius 31.5916
lwrist 22.0986
lhand -20.2374 9.22688
lfingers 7.12502
lthumb 6.1106 39.1188
rfemur -48.2332 3.13116 13.2019
rtibia 35.2491
rfoot 9.83288 -13.0885
rtoes 17.3056
lfemur -16.0413 6.24237 -26.5327
ltibia 36.6803
lfoot 9.78611 -7.97125
ltoes -17.8456
